<?xml version="1.0" standalone="no"?>
<!DOCTYPE svg PUBLIC "-//W3C//DTD SVG 20010904//EN"
 "http://www.w3.org/TR/2001/REC-SVG-20010904/DTD/svg10.dtd">
<svg version="1.0" xmlns="http://www.w3.org/2000/svg"
 width="438.000000pt" height="438.000000pt" viewBox="0 0 438.000000 438.000000"
 preserveAspectRatio="xMidYMid meet">

<g transform="translate(0.000000,438.000000) scale(0.100000,-0.100000)"
fill="#000000" stroke="none">
<path d="M1652 2977 c-18 -5 -53 -28 -77 -49 -87 -76 -95 -202 -21 -314 19
-28 90 -102 157 -165 161 -149 223 -213 263 -274 39 -59 66 -132 66 -180 0
-30 -5 -36 -42 -53 -51 -23 -132 -81 -125 -89 3 -3 25 9 49 26 24 16 61 38 82
46 l39 16 -6 -46 c-16 -111 -78 -199 -175 -247 -62 -31 -73 -33 -167 -32 -170
1 -272 59 -337 192 -31 62 -33 73 -33 172 0 93 3 112 26 161 51 107 140 181
249 206 l55 13 -70 -4 c-97 -6 -174 -37 -239 -97 -79 -72 -101 -128 -101 -254
1 -124 23 -186 94 -266 172 -193 529 -200 699 -14 21 22 44 50 52 63 14 22 15
19 18 -45 2 -37 14 -135 27 -217 14 -83 25 -175 25 -206 0 -66 -23 -167 -49
-218 -21 -42 -87 -106 -127 -124 -13 -6 -24 -15 -24 -20 0 -12 6 -10 52 13 97
49 176 172 204 316 13 64 14 123 9 323 -4 135 -4 266 0 293 7 46 8 47 44 47
137 0 313 -96 377 -206 25 -42 25 -49 22 -180 -3 -135 -3 -136 -31 -160 l-28
-24 128 0 c115 0 125 1 107 15 -43 30 -45 49 -42 504 l3 433 30 25 30 26 -155
-5 c-128 -5 -169 -10 -232 -31 -135 -43 -230 -121 -294 -242 l-31 -57 -6 47
c-9 63 -58 151 -123 224 -30 33 -119 112 -198 175 -208 167 -260 232 -260 326
1 89 58 147 158 157 96 10 176 -46 235 -162 l30 -60 1 46 c0 25 3 74 6 107 l7
61 -29 -11 c-23 -8 -45 -6 -107 11 -82 22 -161 26 -215 8z m998 -637 c19 -19
20 -33 20 -306 l0 -287 -35 45 c-64 85 -192 154 -329 179 -36 7 -66 16 -66 21
0 4 11 37 25 73 59 157 169 264 294 285 69 12 69 12 91 -10z"/>
<path d="M2070 2820 c0 -13 9 -24 25 -30 14 -5 25 -14 25 -19 0 -16 -21 -24
-33 -12 -17 17 -31 13 -17 -4 19 -23 54 -15 58 12 3 17 -3 24 -22 29 -14 3
-26 12 -26 20 0 16 36 19 43 4 3 -6 4 -5 3 2 -1 7 -15 14 -29 16 -22 3 -27 -1
-27 -18z"/>
<path d="M2210 2790 c0 -27 5 -50 10 -50 6 0 10 12 10 26 0 20 4 25 22 22 14
-2 25 -13 29 -28 5 -17 7 -7 7 30 -1 30 -3 45 -5 33 -6 -31 -53 -33 -53 -3 0
11 -4 20 -10 20 -5 0 -10 -22 -10 -50z"/>
<path d="M2386 2797 c-18 -48 -21 -71 -5 -44 5 9 19 17 29 17 10 0 24 -8 29
-17 15 -26 13 -13 -5 40 -9 26 -19 47 -24 47 -4 0 -15 -19 -24 -43z m34 -2 c0
-8 -7 -15 -15 -15 -9 0 -12 6 -9 15 4 8 10 15 15 15 5 0 9 -7 9 -15z"/>
<path d="M2531 2788 c1 -29 4 -43 6 -30 5 27 19 28 35 2 7 -11 16 -20 20 -20
5 0 3 9 -4 19 -9 15 -9 23 0 34 19 23 4 47 -29 47 -28 0 -29 -1 -28 -52z m52
36 c11 -11 -5 -34 -24 -34 -12 0 -19 7 -19 20 0 19 28 28 43 14z"/>
<path d="M2682 2788 c1 -49 2 -50 6 -13 l4 40 12 -32 c6 -18 16 -33 21 -33 6
0 15 15 21 33 l12 32 4 -40 c4 -37 5 -36 6 13 1 28 -1 52 -5 52 -5 0 -15 -17
-24 -38 l-15 -37 -14 38 c-20 52 -30 46 -28 -15z"/>
<path d="M2863 2790 c0 -30 2 -43 4 -27 2 15 2 39 0 55 -2 15 -4 2 -4 -28z"/>
<path d="M2952 2793 l-2 -53 33 1 c29 2 29 2 5 6 -24 4 -27 9 -31 51 l-3 47
-2 -52z"/>
<path d="M3113 2823 c-3 -10 -12 -33 -19 -50 -7 -19 -9 -33 -3 -33 5 0 9 7 9
15 0 21 40 19 57 -2 10 -13 13 -14 9 -3 -2 8 -10 32 -17 53 -13 40 -26 47 -36
20z m27 -29 c0 -8 -6 -14 -14 -14 -9 0 -12 7 -9 20 6 22 23 18 23 -6z"/>
<path d="M2096 2641 c-4 -5 -13 -29 -21 -53 -12 -34 -12 -39 -1 -25 16 21 56
23 56 2 0 -8 4 -15 10 -15 5 0 3 19 -7 43 -19 50 -29 62 -37 48z m24 -43 c0
-5 -7 -8 -15 -8 -17 0 -18 2 -9 25 5 13 8 14 15 3 5 -7 9 -16 9 -20z"/>
<path d="M2220 2600 c0 -27 5 -50 10 -50 6 0 10 12 10 26 0 20 4 25 22 22 14
-2 25 -13 29 -28 5 -17 7 -7 7 30 -1 30 -3 45 -5 33 -6 -31 -53 -33 -53 -3 0
11 -4 20 -10 20 -5 0 -10 -22 -10 -50z"/>
<path d="M2380 2600 c0 -27 5 -50 10 -50 6 0 10 15 10 33 l1 32 15 -35 16 -35
18 40 18 40 4 -40 c4 -37 5 -36 6 13 2 61 -10 67 -31 15 l-15 -38 -15 38 c-22
52 -37 47 -37 -13z"/>
<path d="M2560 2600 l0 -50 33 1 c31 2 31 2 4 6 -35 5 -33 34 3 44 l25 7 -27
1 c-17 1 -28 7 -28 15 0 8 12 17 28 19 25 4 25 4 -5 6 l-33 1 0 -50z"/>
<path d="M2700 2600 c0 -49 1 -50 30 -50 50 0 75 65 36 92 -6 4 -23 8 -38 8
-27 0 -28 -2 -28 -50z m68 6 c4 -28 -10 -46 -35 -46 -8 0 -13 15 -13 41 0 36
2 40 23 37 16 -2 23 -11 25 -32z"/>
</g>
</svg>
